<svg xmlns="http://www.w3.org/2000/svg" viewBox="0 0 64 64" width="64" height="64">
  <defs>
    <linearGradient id="g1" x1="0%" y1="0%" x2="100%" y2="100%">
      <stop offset="0%" style="stop-color:#FF6B35"/>
      <stop offset="100%" style="stop-color:#FF2D78"/>
    </linearGradient>
  </defs>
  <rect width="64" height="64" rx="12" fill="#0A0A0F"/>
  <!-- Fênix estilizada -->
  <path d="M32 10 C32 10 20 18 18 28 C16 36 22 40 28 38 C24 44 20 52 32 54 C44 52 40 44 36 38 C42 40 48 36 46 28 C44 18 32 10 32 10 Z" fill="url(#g1)" opacity="0.9"/>
  <path d="M32 22 C32 22 26 28 26 34 C26 40 32 42 32 42 C32 42 38 40 38 34 C38 28 32 22 32 22 Z" fill="#FFF" opacity="0.9"/>
  <circle cx="32" cy="34" r="3" fill="#0A0A0F"/>
</svg>
